<svg xmlns="http://www.w3.org/2000/svg" xmlns:xlink="http://www.w3.org/1999/xlink" width="25" height="25" viewBox="0 0 25 25"><defs><clipPath id="b"><rect width="25" height="25"/></clipPath></defs><g id="a" clip-path="url(#b)"><path d="M74,64A10,10,0,1,0,84,74,10,10,0,0,0,74,64Zm6.349,4.609a8.32,8.32,0,0,1,1.964,4.839,42.161,42.161,0,0,0-5.688.068c-.219-.552-.443-1.094-.687-1.615A10.126,10.126,0,0,0,80.349,68.609ZM74,65.667a8.3,8.3,0,0,1,5.318,1.917,10.367,10.367,0,0,1-4.1,2.9,20.353,20.353,0,0,0-3.271-4.547A8.363,8.363,0,0,1,74,65.667Zm-3.771.911a20.135,20.135,0,0,1,3.323,4.51,21.889,21.889,0,0,1-6.339.9c-.437,0-.865-.016-1.286-.042A8.339,8.339,0,0,1,70.229,66.578ZM65.682,73.6c.474.021.953.031,1.438.026a24.65,24.65,0,0,0,7.167-1.115q.3.617.563,1.266a5.155,5.155,0,0,0-.745.224A12.447,12.447,0,0,0,67.75,79.5,8.3,8.3,0,0,1,65.667,74C65.667,73.865,65.672,73.734,65.682,73.6ZM74,82.333a8.285,8.285,0,0,1-5.109-1.755,11.461,11.461,0,0,1,5.583-5.146,4.489,4.489,0,0,1,.906-.276q.445,1.234.8,2.563a30.274,30.274,0,0,1,.771,4.068A8.256,8.256,0,0,1,74,82.333Zm4.505-1.328a30.065,30.065,0,0,0-.776-4.109c-.177-.677-.38-1.333-.6-1.974a35.419,35.419,0,0,1,5.151,0A8.325,8.325,0,0,1,78.505,81.005Z" transform="translate(-61.904 -61.904)" fill="#fff"/></g></svg>