<svg xmlns="http://www.w3.org/2000/svg" xmlns:xlink="http://www.w3.org/1999/xlink" width="25" height="25" viewBox="0 0 25 25"><defs><clipPath id="b"><rect width="25" height="25"/></clipPath></defs><g id="a" clip-path="url(#b)"><g transform="translate(-61.989 -61.989)"><path d="M78.151,65.665a4.174,4.174,0,0,1,4.162,4.162v8.324a4.174,4.174,0,0,1-4.162,4.162H69.827a4.174,4.174,0,0,1-4.162-4.162V69.827a4.174,4.174,0,0,1,4.162-4.162h8.324m0-1.665H69.827A5.844,5.844,0,0,0,64,69.827v8.324a5.844,5.844,0,0,0,5.827,5.827h8.324a5.844,5.844,0,0,0,5.827-5.827V69.827A5.844,5.844,0,0,0,78.151,64Z" fill="#fff"/><path d="M170.405,130.5a1.249,1.249,0,1,1,1.249-1.249A1.246,1.246,0,0,1,170.405,130.5Zm-5.411.832a3.33,3.33,0,1,1-3.33,3.33,3.333,3.333,0,0,1,3.33-3.33m0-1.665a4.994,4.994,0,1,0,4.994,4.994A5,5,0,0,0,164.994,129.665Z" transform="translate(-91.006 -60.67)" fill="#fff"/></g></g></svg>