<svg xmlns="http://www.w3.org/2000/svg" xmlns:xlink="http://www.w3.org/1999/xlink" width="25" height="25" viewBox="0 0 25 25"><defs><clipPath id="b"><rect width="25" height="25"/></clipPath></defs><g id="a" clip-path="url(#b)"><path d="M19.864,67.313a3.037,3.037,0,0,0-2.891-3.172C14.809,64.039,12.6,64,10.347,64h-.7c-2.25,0-4.462.039-6.626.141a3.044,3.044,0,0,0-2.887,3.18c-.1,1.391-.141,2.782-.137,4.172s.039,2.782.133,4.176a3.047,3.047,0,0,0,2.887,3.184c2.274.105,4.606.152,6.978.148s4.7-.039,6.978-.148A3.048,3.048,0,0,0,19.86,75.67c.094-1.395.137-2.786.133-4.18S19.958,68.708,19.864,67.313ZM8.081,75.326V67.649l5.665,3.836Z" transform="translate(2.488 -59.103)" fill="#fff"/></g></svg>