<svg xmlns="http://www.w3.org/2000/svg" xmlns:xlink="http://www.w3.org/1999/xlink" width="25" height="25" viewBox="0 0 25 25"><defs><clipPath id="b"><rect width="25" height="25"/></clipPath></defs><g id="a" clip-path="url(#b)"><path d="M82.9,64H65.1A1.1,1.1,0,0,0,64,65.1V82.9A1.1,1.1,0,0,0,65.1,84H74V76.083H71.609V73.167H74V71.01a3.8,3.8,0,0,1,4.1-3.99c1.1,0,2.292.083,2.568.12v2.7H78.828c-1.255,0-1.495.594-1.495,1.469v1.859h2.99l-.391,2.917h-2.6V84H82.9A1.1,1.1,0,0,0,84,82.9V65.1A1.1,1.1,0,0,0,82.9,64Z" transform="translate(-62 -61)" fill="#fff"/></g></svg>