<svg xmlns="http://www.w3.org/2000/svg" xmlns:xlink="http://www.w3.org/1999/xlink" width="25" height="25" viewBox="0 0 25 25"><defs><clipPath id="b"><rect width="25" height="25"/></clipPath></defs><g id="a" clip-path="url(#b)"><path d="M40.1,65.928a8.3,8.3,0,0,1-2.356.648,4.118,4.118,0,0,0,1.805-2.272,8.153,8.153,0,0,1-2.606,1,4.1,4.1,0,0,0-7.1,2.806,4.017,4.017,0,0,0,.106.937A11.628,11.628,0,0,1,21.49,64.75a4.111,4.111,0,0,0,1.276,5.484,4.008,4.008,0,0,1-1.865-.513v.051A4.107,4.107,0,0,0,24.194,73.8a4.131,4.131,0,0,1-1.081.144,3.871,3.871,0,0,1-.771-.076,4.11,4.11,0,0,0,3.836,2.852,8.227,8.227,0,0,1-5.1,1.759,8.317,8.317,0,0,1-.979-.059,11.469,11.469,0,0,0,6.281,1.856A11.605,11.605,0,0,0,38.066,68.586c0-.178,0-.356-.013-.53A8.353,8.353,0,0,0,40.1,65.928Z" transform="translate(-17.157 -59.211)" fill="#fff"/></g></svg>